name ./resultDataOpenSim/trcMotMarkerGrf/sub09/grf-15-01.mot
datacolumns 19
datarows 27
range 1.01600000 1.12000000
endheader

                time	     ground_force_vx	     ground_force_vy	     ground_force_vz	     ground_force_px	     ground_force_py	     ground_force_pz	   l_ground_force_vx	   l_ground_force_vy	   l_ground_force_vz	   l_ground_force_px	   l_ground_force_py	   l_ground_force_pz	     ground_torque_x	     ground_torque_y	     ground_torque_z	   l_ground_torque_x	   l_ground_torque_y	   l_ground_torque_z	
          1.01600000	          0.00000000	          0.00000000	          0.00000000	          0.00000000	          0.00000000	          0.00000000	         20.34008156	        488.83438703	          5.14277803	          0.19767539	         -0.10000000	          0.00025946	          0.00000000	          0.00000000	          0.00000000	          0.00000000	         -1.84812610	          0.00000000	
          1.02000000	          0.00000000	          0.00000000	          0.00000000	          0.00000000	          0.00000000	          0.00000000	         22.11316817	        493.29029656	          5.53350618	          0.19858361	         -0.10000000	          0.00095390	          0.00000000	          0.00000000	          0.00000000	          0.00000000	         -1.90074914	          0.00000000	
          1.02400000	          0.00000000	          0.00000000	          0.00000000	          0.00000000	          0.00000000	          0.00000000	         23.94402318	        497.69194294	          5.98988046	          0.19951130	         -0.10000000	          0.00167362	          0.00000000	          0.00000000	          0.00000000	          0.00000000	         -1.95496948	          0.00000000	
          1.02800000	          0.00000000	          0.00000000	          0.00000000	          0.00000000	          0.00000000	          0.00000000	         25.86965041	        501.87833336	          6.45994927	          0.20043706	         -0.10000000	          0.00240708	          0.00000000	          0.00000000	          0.00000000	          0.00000000	         -2.01723134	          0.00000000	
          1.03200000	          0.00000000	          0.00000000	          0.00000000	          0.00000000	          0.00000000	          0.00000000	         27.93519644	        505.78616802	          6.86590461	          0.20135611	         -0.10000000	          0.00314696	          0.00000000	          0.00000000	          0.00000000	          0.00000000	         -2.09465728	          0.00000000	
          1.03600000	          0.00000000	          0.00000000	          0.00000000	          0.00000000	          0.00000000	          0.00000000	         30.20851051	        509.45791235	          7.13896482	          0.20228236	         -0.10000000	          0.00388917	          0.00000000	          0.00000000	          0.00000000	          0.00000000	         -2.19332400	          0.00000000	
          1.04000000	          0.00000000	          0.00000000	          0.00000000	          0.00000000	          0.00000000	          0.00000000	         32.77164230	        513.01348702	          7.23783831	          0.20322101	         -0.10000000	          0.00463713	          0.00000000	          0.00000000	          0.00000000	          0.00000000	         -2.31699143	          0.00000000	
          1.04400000	          0.00000000	          0.00000000	          0.00000000	          0.00000000	          0.00000000	          0.00000000	         35.69284779	        516.61135565	          7.14581592	          0.20416111	         -0.10000000	          0.00539861	          0.00000000	          0.00000000	          0.00000000	          0.00000000	         -2.46659456	          0.00000000	
          1.04800000	          0.00000000	          0.00000000	          0.00000000	          0.00000000	          0.00000000	          0.00000000	         39.01016272	        520.40785724	          6.84777801	          0.20508454	         -0.10000000	          0.00617842	          0.00000000	          0.00000000	          0.00000000	          0.00000000	         -2.64037291	          0.00000000	
          1.05200000	          0.00000000	          0.00000000	          0.00000000	          0.00000000	          0.00000000	          0.00000000	         42.73983373	        524.51888234	          6.31451859	          0.20596284	         -0.10000000	          0.00697447	          0.00000000	          0.00000000	          0.00000000	          0.00000000	         -2.83435999	          0.00000000	
          1.05600000	          0.00000000	          0.00000000	          0.00000000	          0.00000000	          0.00000000	          0.00000000	         46.88987528	        528.99642361	          5.52484086	          0.20675994	         -0.10000000	          0.00777143	          0.00000000	          0.00000000	          0.00000000	          0.00000000	         -3.04309500	          0.00000000	
          1.06000000	          0.00000000	          0.00000000	          0.00000000	          0.00000000	          0.00000000	          0.00000000	         51.45258570	        533.82644536	          4.49981830	          0.20746111	         -0.10000000	          0.00854616	          0.00000000	          0.00000000	          0.00000000	          0.00000000	         -3.26053270	          0.00000000	
          1.06400000	          0.00000000	          0.00000000	          0.00000000	          0.00000000	          0.00000000	          0.00000000	         56.38465228	        538.94047871	          3.29837346	          0.20809182	         -0.10000000	          0.00929062	          0.00000000	          0.00000000	          0.00000000	          0.00000000	         -3.48100257	          0.00000000	
          1.06800000	          0.00000000	          0.00000000	          0.00000000	          0.00000000	          0.00000000	          0.00000000	         61.60132025	        544.24002983	          1.97612242	          0.20869024	         -0.10000000	          0.01002035	          0.00000000	          0.00000000	          0.00000000	          0.00000000	         -3.69986805	          0.00000000	
          1.07200000	          0.00000000	          0.00000000	          0.00000000	          0.00000000	          0.00000000	          0.00000000	         66.98634943	        549.62437505	          0.55370951	          0.20927837	         -0.10000000	          0.01076338	          0.00000000	          0.00000000	          0.00000000	          0.00000000	         -3.91355857	          0.00000000	
          1.07600000	          0.00000000	          0.00000000	          0.00000000	          0.00000000	          0.00000000	          0.00000000	         72.40796367	        554.98825722	         -0.97547795	          0.20988038	         -0.10000000	          0.01155078	          0.00000000	          0.00000000	          0.00000000	          0.00000000	         -4.11897628	          0.00000000	
          1.08000000	          0.00000000	          0.00000000	          0.00000000	          0.00000000	          0.00000000	          0.00000000	         77.73381878	        560.19341542	         -2.60426161	          0.21053131	         -0.10000000	          0.01239578	          0.00000000	          0.00000000	          0.00000000	          0.00000000	         -4.31271398	          0.00000000	
          1.08400000	          0.00000000	          0.00000000	          0.00000000	          0.00000000	          0.00000000	          0.00000000	         82.84222248	        565.07581404	         -4.27320562	          0.21125787	         -0.10000000	          0.01329074	          0.00000000	          0.00000000	          0.00000000	          0.00000000	         -4.49071218	          0.00000000	
          1.08800000	          0.00000000	          0.00000000	          0.00000000	          0.00000000	          0.00000000	          0.00000000	         87.64134053	        569.50371492	         -5.87711431	          0.21207067	         -0.10000000	          0.01421767	          0.00000000	          0.00000000	          0.00000000	          0.00000000	         -4.64871142	          0.00000000	
          1.09200000	          0.00000000	          0.00000000	          0.00000000	          0.00000000	          0.00000000	          0.00000000	         92.08425040	        573.41184819	         -7.32208042	          0.21295541	         -0.10000000	          0.01514694	          0.00000000	          0.00000000	          0.00000000	          0.00000000	         -4.78327847	          0.00000000	
          1.09600000	          0.00000000	          0.00000000	          0.00000000	          0.00000000	          0.00000000	          0.00000000	         96.15308148	        576.76911913	         -8.58938570	          0.21388805	         -0.10000000	          0.01603962	          0.00000000	          0.00000000	          0.00000000	          0.00000000	         -4.89271568	          0.00000000	
          1.10000000	          0.00000000	          0.00000000	          0.00000000	          0.00000000	          0.00000000	          0.00000000	         99.83919274	        579.54671983	         -9.75265210	          0.21484228	         -0.10000000	          0.01686972	          0.00000000	          0.00000000	          0.00000000	          0.00000000	         -4.97716388	          0.00000000	
          1.10400000	          0.00000000	          0.00000000	          0.00000000	          0.00000000	          0.00000000	          0.00000000	        103.14740688	        581.74011448	        -10.93182751	          0.21579368	         -0.10000000	          0.01762461	          0.00000000	          0.00000000	          0.00000000	          0.00000000	         -5.03776035	          0.00000000	
          1.10800000	          0.00000000	          0.00000000	          0.00000000	          0.00000000	          0.00000000	          0.00000000	        106.10202632	        583.38668270	        -12.20816664	          0.21672000	         -0.10000000	          0.01830808	          0.00000000	          0.00000000	          0.00000000	          0.00000000	         -5.07546359	          0.00000000	
          1.11200000	          0.00000000	          0.00000000	          0.00000000	          0.00000000	          0.00000000	          0.00000000	        108.73939989	        584.52823477	        -13.56230307	          0.21761111	         -0.10000000	          0.01892714	          0.00000000	          0.00000000	          0.00000000	          0.00000000	         -5.09049406	          0.00000000	
          1.11600000	          0.00000000	          0.00000000	          0.00000000	          0.00000000	          0.00000000	          0.00000000	        111.09746537	        585.16867095	        -14.90659394	          0.21847901	         -0.10000000	          0.01948867	          0.00000000	          0.00000000	          0.00000000	          0.00000000	         -5.08287563	          0.00000000	
          1.12000000	          0.00000000	          0.00000000	          0.00000000	          0.00000000	          0.00000000	          0.00000000	        113.21431803	        585.26689632	        -16.18552253	          0.21934194	         -0.10000000	          0.02000510	          0.00000000	          0.00000000	          0.00000000	          0.00000000	         -5.05356470	          0.00000000	
